<svg xmlns="http://www.w3.org/2000/svg" width="27.192" height="24.17" viewBox="0 0 27.192 24.17">
  <path id="Icon_awesome-shopping-cart" data-name="Icon awesome-shopping-cart" d="M24.931,14.225l2.232-9.819a1.133,1.133,0,0,0-1.1-1.384H7.516L7.083.906A1.133,1.133,0,0,0,5.973,0H1.133A1.133,1.133,0,0,0,0,1.133v.755A1.133,1.133,0,0,0,1.133,3.021h3.3L7.748,19.234a2.644,2.644,0,1,0,3.165.4h9.9a2.643,2.643,0,1,0,3-.491L24.073,18a1.133,1.133,0,0,0-1.1-1.384H10.3l-.309-1.511H23.827A1.133,1.133,0,0,0,24.931,14.225Z"/>
</svg>
